<svg xmlns="http://www.w3.org/2000/svg" width="1500" height="800" viewBox="0 0 1500 800" role="img" aria-labelledby="title desc"><title id="title">gpt-5.6-sol Prompt Version Pass Trend</title><desc id="desc">120-case medium test bank · complete regression runs only</desc><rect width="1500" height="800" fill="#F5F3EE"/><rect x="70" y="105" width="1370" height="590" rx="4" fill="#FBFAF7" stroke="#D8D4CC"/><g font-family="Charter,Georgia,Times New Roman,STSong,Songti SC,Noto Serif CJK SC,serif"><text x="750" y="57" text-anchor="middle" font-size="32" font-weight="500" fill="#2E3437">gpt-5.6-sol Prompt Version Pass Trend</text><text x="750" y="88" text-anchor="middle" font-size="19" fill="#6F7476">120-case medium test bank · complete regression runs only</text><line x1="115" y1="549.0" x2="1370" y2="549.0" stroke="#D8D4CC" stroke-width="1"/><text x="97" y="555.0" text-anchor="end" font-size="17" fill="#4E565A">60</text><text x="1388" y="555.0" font-size="17" fill="#4E565A">50.0%</text><line x1="115" y1="448.0" x2="1370" y2="448.0" stroke="#D8D4CC" stroke-width="1"/><text x="97" y="454.0" text-anchor="end" font-size="17" fill="#4E565A">75</text><text x="1388" y="454.0" font-size="17" fill="#4E565A">62.5%</text><line x1="115" y1="347.0" x2="1370" y2="347.0" stroke="#D8D4CC" stroke-width="1"/><text x="97" y="353.0" text-anchor="end" font-size="17" fill="#4E565A">90</text><text x="1388" y="353.0" font-size="17" fill="#4E565A">75.0%</text><line x1="115" y1="246.0" x2="1370" y2="246.0" stroke="#D8D4CC" stroke-width="1"/><text x="97" y="252.0" text-anchor="end" font-size="17" fill="#4E565A">105</text><text x="1388" y="252.0" font-size="17" fill="#4E565A">87.5%</text><line x1="115" y1="145.0" x2="1370" y2="145.0" stroke="#D8D4CC" stroke-width="1"/><text x="97" y="151.0" text-anchor="end" font-size="17" fill="#4E565A">120</text><text x="1388" y="151.0" font-size="17" fill="#4E565A">100.0%</text><line x1="115" y1="145" x2="115" y2="650" stroke="#8C8A84" stroke-width="1.5"/><line x1="115" y1="650" x2="1370" y2="650" stroke="#8C8A84" stroke-width="1.5"/><line x1="115.0" y1="650" x2="115.0" y2="656" stroke="#8C8A84"/><text x="115.0" y="683" text-anchor="middle" font-size="17" fill="#4E565A">5.5 baseline</text><line x1="219.6" y1="650" x2="219.6" y2="656" stroke="#8C8A84"/><text x="219.6" y="683" text-anchor="middle" font-size="17" fill="#4E565A">v5</text><line x1="324.2" y1="650" x2="324.2" y2="656" stroke="#8C8A84"/><text x="324.2" y="683" text-anchor="middle" font-size="17" fill="#4E565A">v18</text><line x1="428.8" y1="650" x2="428.8" y2="656" stroke="#8C8A84"/><text x="428.8" y="683" text-anchor="middle" font-size="17" fill="#4E565A">v19</text><line x1="533.3" y1="650" x2="533.3" y2="656" stroke="#8C8A84"/><text x="533.3" y="683" text-anchor="middle" font-size="17" fill="#4E565A">v20</text><line x1="637.9" y1="650" x2="637.9" y2="656" stroke="#8C8A84"/><text x="637.9" y="683" text-anchor="middle" font-size="17" fill="#4E565A">v21</text><line x1="742.5" y1="650" x2="742.5" y2="656" stroke="#8C8A84"/><text x="742.5" y="683" text-anchor="middle" font-size="17" fill="#4E565A">v24</text><line x1="847.1" y1="650" x2="847.1" y2="656" stroke="#8C8A84"/><text x="847.1" y="683" text-anchor="middle" font-size="17" fill="#4E565A">v30</text><line x1="951.7" y1="650" x2="951.7" y2="656" stroke="#8C8A84"/><text x="951.7" y="683" text-anchor="middle" font-size="17" fill="#4E565A">v31</text><line x1="1056.2" y1="650" x2="1056.2" y2="656" stroke="#8C8A84"/><text x="1056.2" y="683" text-anchor="middle" font-size="17" fill="#4E565A">v32</text><line x1="1160.8" y1="650" x2="1160.8" y2="656" stroke="#8C8A84"/><text x="1160.8" y="683" text-anchor="middle" font-size="17" fill="#4E565A">v33</text><line x1="1265.4" y1="650" x2="1265.4" y2="656" stroke="#8C8A84"/><text x="1265.4" y="683" text-anchor="middle" font-size="17" fill="#4E565A">v35</text><line x1="1370.0" y1="650" x2="1370.0" y2="656" stroke="#8C8A84"/><text x="1370.0" y="683" text-anchor="middle" font-size="17" fill="#4E565A">v41</text><text x="742.5" y="738" text-anchor="middle" font-size="21" fill="#4E565A">Prompt version</text><text x="29" y="400" transform="rotate(-90 29 400)" text-anchor="middle" font-size="21" fill="#4E565A">Passing cases (out of 120)</text><polyline points="115.0,380.7 219.6,145.0 324.2,239.3 742.5,151.7 1056.2,151.7 1160.8,145.0 1265.4,145.0 1370.0,145.0" fill="none" stroke="#667C91" stroke-width="3.5" stroke-linecap="round" stroke-linejoin="round"/><circle cx="115.0" cy="380.7" r="7" fill="#667C91" stroke="#FBFAF7" stroke-width="2"/><text x="115.0" y="364.7" text-anchor="middle" font-size="17" font-weight="500" fill="#667C91">85</text><circle cx="219.6" cy="145.0" r="7" fill="#667C91" stroke="#FBFAF7" stroke-width="2"/><text x="219.6" y="129.0" text-anchor="middle" font-size="17" font-weight="500" fill="#667C91">120</text><circle cx="324.2" cy="239.3" r="7" fill="#667C91" stroke="#FBFAF7" stroke-width="2"/><text x="324.2" y="223.3" text-anchor="middle" font-size="17" font-weight="500" fill="#667C91">106</text><circle cx="742.5" cy="151.7" r="7" fill="#667C91" stroke="#FBFAF7" stroke-width="2"/><text x="742.5" y="135.7" text-anchor="middle" font-size="17" font-weight="500" fill="#667C91">119</text><circle cx="1056.2" cy="151.7" r="7" fill="#667C91" stroke="#FBFAF7" stroke-width="2"/><text x="1056.2" y="135.7" text-anchor="middle" font-size="17" font-weight="500" fill="#667C91">119</text><circle cx="1160.8" cy="145.0" r="7" fill="#667C91" stroke="#FBFAF7" stroke-width="2"/><text x="1160.8" y="129.0" text-anchor="middle" font-size="17" font-weight="500" fill="#667C91">120</text><circle cx="1265.4" cy="145.0" r="7" fill="#667C91" stroke="#FBFAF7" stroke-width="2"/><text x="1265.4" y="129.0" text-anchor="middle" font-size="17" font-weight="500" fill="#667C91">120</text><circle cx="1370.0" cy="145.0" r="7" fill="#667C91" stroke="#FBFAF7" stroke-width="2"/><text x="1370.0" y="129.0" text-anchor="middle" font-size="17" font-weight="500" fill="#667C91">120</text><polyline points="115.0,508.6 219.6,145.0 324.2,569.2 428.8,306.6 533.3,353.7 637.9,205.6 742.5,145.0 847.1,151.7 951.7,212.3 1056.2,145.0 1160.8,145.0 1265.4,145.0 1370.0,145.0" fill="none" stroke="#B07D62" stroke-width="3.5" stroke-linecap="round" stroke-linejoin="round"/><rect x="108.0" y="501.6" width="14" height="14" rx="2" fill="#B07D62" stroke="#FBFAF7" stroke-width="2"/><text x="115.0" y="552.6" text-anchor="middle" font-size="17" font-weight="500" fill="#B07D62">66</text><rect x="212.6" y="138.0" width="14" height="14" rx="2" fill="#B07D62" stroke="#FBFAF7" stroke-width="2"/><text x="219.6" y="189.0" text-anchor="middle" font-size="17" font-weight="500" fill="#B07D62">120</text><rect x="317.2" y="562.2" width="14" height="14" rx="2" fill="#B07D62" stroke="#FBFAF7" stroke-width="2"/><text x="324.2" y="613.2" text-anchor="middle" font-size="17" font-weight="500" fill="#B07D62">57</text><rect x="421.8" y="299.6" width="14" height="14" rx="2" fill="#B07D62" stroke="#FBFAF7" stroke-width="2"/><text x="428.8" y="350.6" text-anchor="middle" font-size="17" font-weight="500" fill="#B07D62">96</text><rect x="526.3" y="346.7" width="14" height="14" rx="2" fill="#B07D62" stroke="#FBFAF7" stroke-width="2"/><text x="533.3" y="397.7" text-anchor="middle" font-size="17" font-weight="500" fill="#B07D62">89</text><rect x="630.9" y="198.6" width="14" height="14" rx="2" fill="#B07D62" stroke="#FBFAF7" stroke-width="2"/><text x="637.9" y="249.6" text-anchor="middle" font-size="17" font-weight="500" fill="#B07D62">111</text><rect x="735.5" y="138.0" width="14" height="14" rx="2" fill="#B07D62" stroke="#FBFAF7" stroke-width="2"/><text x="742.5" y="189.0" text-anchor="middle" font-size="17" font-weight="500" fill="#B07D62">120</text><rect x="840.1" y="144.7" width="14" height="14" rx="2" fill="#B07D62" stroke="#FBFAF7" stroke-width="2"/><text x="847.1" y="195.7" text-anchor="middle" font-size="17" font-weight="500" fill="#B07D62">119</text><rect x="944.7" y="205.3" width="14" height="14" rx="2" fill="#B07D62" stroke="#FBFAF7" stroke-width="2"/><text x="951.7" y="256.3" text-anchor="middle" font-size="17" font-weight="500" fill="#B07D62">110</text><rect x="1049.2" y="138.0" width="14" height="14" rx="2" fill="#B07D62" stroke="#FBFAF7" stroke-width="2"/><text x="1056.2" y="189.0" text-anchor="middle" font-size="17" font-weight="500" fill="#B07D62">120</text><rect x="1153.8" y="138.0" width="14" height="14" rx="2" fill="#B07D62" stroke="#FBFAF7" stroke-width="2"/><text x="1160.8" y="189.0" text-anchor="middle" font-size="17" font-weight="500" fill="#B07D62">120</text><rect x="1258.4" y="138.0" width="14" height="14" rx="2" fill="#B07D62" stroke="#FBFAF7" stroke-width="2"/><text x="1265.4" y="189.0" text-anchor="middle" font-size="17" font-weight="500" fill="#B07D62">120</text><rect x="1363.0" y="138.0" width="14" height="14" rx="2" fill="#B07D62" stroke="#FBFAF7" stroke-width="2"/><text x="1370.0" y="189.0" text-anchor="middle" font-size="17" font-weight="500" fill="#B07D62">120</text><polyline points="115.0,394.1 219.6,145.0 324.2,340.3 742.5,145.0 1160.8,145.0 1265.4,145.0 1370.0,145.0" fill="none" stroke="#708C7A" stroke-width="3.5" stroke-linecap="round" stroke-linejoin="round"/><path d="M 115.0 386.1 L 107.0 401.1 L 123.0 401.1 Z" fill="#708C7A" stroke="#FBFAF7" stroke-width="2"/><text x="115.0" y="462.1" text-anchor="middle" font-size="17" font-weight="500" fill="#708C7A">83</text><path d="M 219.6 137.0 L 211.6 152.0 L 227.6 152.0 Z" fill="#708C7A" stroke="#FBFAF7" stroke-width="2"/><text x="219.6" y="213.0" text-anchor="middle" font-size="17" font-weight="500" fill="#708C7A">120</text><path d="M 324.2 332.3 L 316.2 347.3 L 332.2 347.3 Z" fill="#708C7A" stroke="#FBFAF7" stroke-width="2"/><text x="324.2" y="408.3" text-anchor="middle" font-size="17" font-weight="500" fill="#708C7A">91</text><path d="M 742.5 137.0 L 734.5 152.0 L 750.5 152.0 Z" fill="#708C7A" stroke="#FBFAF7" stroke-width="2"/><text x="742.5" y="213.0" text-anchor="middle" font-size="17" font-weight="500" fill="#708C7A">120</text><path d="M 1160.8 137.0 L 1152.8 152.0 L 1168.8 152.0 Z" fill="#708C7A" stroke="#FBFAF7" stroke-width="2"/><text x="1160.8" y="213.0" text-anchor="middle" font-size="17" font-weight="500" fill="#708C7A">120</text><path d="M 1265.4 137.0 L 1257.4 152.0 L 1273.4 152.0 Z" fill="#708C7A" stroke="#FBFAF7" stroke-width="2"/><text x="1265.4" y="213.0" text-anchor="middle" font-size="17" font-weight="500" fill="#708C7A">120</text><path d="M 1370.0 137.0 L 1362.0 152.0 L 1378.0 152.0 Z" fill="#708C7A" stroke="#FBFAF7" stroke-width="2"/><text x="1370.0" y="213.0" text-anchor="middle" font-size="17" font-weight="500" fill="#708C7A">120</text><line x1="1000" y1="615" x2="1034" y2="615" stroke="#667C91" stroke-width="3.5"/><text x="1045" y="621" font-size="18" fill="#4E565A">low</text><line x1="1145" y1="615" x2="1179" y2="615" stroke="#B07D62" stroke-width="3.5"/><text x="1190" y="621" font-size="18" fill="#4E565A">medium</text><line x1="1290" y1="615" x2="1324" y2="615" stroke="#708C7A" stroke-width="3.5"/><text x="1335" y="621" font-size="18" fill="#4E565A">high</text><text x="750" y="780" text-anchor="middle" font-size="16" fill="#6F7476">Audited retries are shown; v41 uses current plaintext transport, while historical releases may include legacy transport.</text></g></svg>
